<?xml version="1.0" encoding="utf-8"?>
<!-- Generator: Adobe Illustrator 23.0.1, SVG Export Plug-In . SVG Version: 6.00 Build 0)  -->
<svg version="1.1" id="图层_1" xmlns="http://www.w3.org/2000/svg" xmlns:xlink="http://www.w3.org/1999/xlink" x="0px" y="0px"
	 viewBox="0 0 44 44" style="enable-background:new 0 0 44 44;" xml:space="preserve">
<style type="text/css">
	.st0{fill:none;}
	.st1{fill:#231815;}
</style>
<path class="st0" d="M32.5,6.3h-2.2v26.1h2.2c3.1,0,5.5-0.9,7.1-2.8c1.6-1.9,2.4-5.3,2.4-10.1c0-4.8-0.8-8.2-2.4-10.2
	C38,7.2,35.6,6.3,32.5,6.3z"/>
<polygon class="st1" points="23.5,2.5 2.1,2.5 2.1,6.4 20.7,6.4 "/>
<polygon class="st1" points="25.8,32.4 10.2,32.4 7.4,36 30.9,36 30.9,36 25.8,36 "/>
<polygon class="st1" points="25.7,2.5 0.3,36 5.1,36 25.8,8.7 25.8,2.5 "/>
<path class="st1" d="M40.6,6.5c-2.3-2.6-5.8-3.9-10.7-3.9h-2.2v0h0.1l-0.1,0.1v3.6h2.2c3.1,0,5.5,1,7.1,2.9c1.6,2,2.4,5.4,2.4,10.2
	c0,4.8-0.8,8.2-2.4,10.1c-1.6,1.9-3.9,2.8-7.1,2.8h-1.5v0.1v3.3V36h1.5c4.3,0,7.7-1.3,10.3-3.8c2.5-2.5,3.8-6.8,3.8-12.8
	C44,13.4,42.9,9.1,40.6,6.5z"/>
</svg>
