<?xml version="1.0" encoding="utf-8"?>
<!-- Generator: Adobe Illustrator 23.0.1, SVG Export Plug-In . SVG Version: 6.00 Build 0)  -->
<svg version="1.1" id="图层_1" xmlns="http://www.w3.org/2000/svg" xmlns:xlink="http://www.w3.org/1999/xlink" x="0px" y="0px"
	 viewBox="0 0 44 44" style="enable-background:new 0 0 44 44;" xml:space="preserve">
<style type="text/css">
	.st0{fill:#231815;}
	.st1{fill:none;}
	.st2{fill:#FFFFFF;}
</style>
<rect x="0" class="st0" width="44" height="44"/>
<path class="st1" d="M29.9,11.6h-1.7v20.9h1.7c2.5,0,4.4-0.8,5.7-2.3c1.3-1.5,1.9-4.2,1.9-8.1c0-3.9-0.6-6.6-1.9-8.2
	C34.3,12.4,32.4,11.6,29.9,11.6z"/>
<polygon class="st2" points="22.6,8.7 5.4,8.7 5.4,11.7 20.4,11.7 "/>
<polygon class="st2" points="24.5,32.7 12,32.7 9.7,35.6 28.6,35.6 28.6,35.6 24.5,35.6 "/>
<polygon class="st2" points="24.4,8.7 4,35.6 7.9,35.6 24.5,13.6 24.5,8.7 "/>
<rect x="24.5" y="32.7" class="st0" width="4.1" height="2.9"/>
<polygon class="st0" points="24.5,8.5 24.5,13.6 28.2,8.5 "/>
<path class="st2" d="M36.4,11.8c-1.8-2.1-4.7-3.1-8.6-3.1h-1.7v0h0.1l-0.1,0.1v2.9h1.7c2.5,0,4.4,0.8,5.7,2.4
	c1.3,1.6,1.9,4.3,1.9,8.2c0,3.9-0.6,6.6-1.9,8.1c-1.3,1.5-3.1,2.3-5.7,2.3h-1.2v0.1v2.6v0.3h1.2c3.5,0,6.2-1,8.3-3.1
	c2-2,3.1-5.5,3.1-10.3C39.1,17.4,38.2,13.9,36.4,11.8z"/>
</svg>
