<?xml version="1.0" standalone="no"?><!DOCTYPE svg PUBLIC "-//W3C//DTD SVG 1.1//EN" "http://www.w3.org/Graphics/SVG/1.1/DTD/svg11.dtd"><svg t="1597839853129" class="icon" viewBox="0 0 1024 1024" version="1.1" xmlns="http://www.w3.org/2000/svg" p-id="1409" xmlns:xlink="http://www.w3.org/1999/xlink" width="200" height="200"><defs><style type="text/css"></style></defs><path d="M918.108275 582.140477l-94.959745 0 0 282.532795c0 25.795503-10.417257 49.28959-27.16264 66.307172-16.724917 17.004279-39.789215 27.564799-65.107857 27.564799L605.361341 958.545242 605.361341 769.907954c0-26.084075-10.483772-49.795103-27.368324-66.948785-16.911158-17.193591-40.276309-27.866674-65.98176-27.866674-25.713638 0-49.078789 10.673084-65.991993 27.874861-16.881482 17.153682-27.368324 40.865733-27.368324 66.941622l0 188.637288L293.14448 958.546266c-25.329898 0-48.38294-10.56052-65.107857-27.557636-16.753569-17.042141-27.16571-40.510646-27.16571-66.315358L200.870914 582.140477 98.365308 582.140477c-2.681062-2.62785-5.468548-5.257747-8.090259-7.946996-19.102057-19.525706-28.492938-44.500517-28.401864-69.579705 0.091074-25.039279 9.601682-50.080605 28.282137-69.842695C201.702861 320.29177 322.135768 207.754694 436.774715 95.622848c20.463054-20.002566 47.876404-30.0412 75.18333-30.072923 27.298739-0.029676 54.698786 9.950629 75.130118 29.921473l53.254901 52.084239c0.945535-20.069081 9.41237-38.259372 22.595624-51.66059 13.95892-14.193257 33.214473-23.008017 54.358025-23.008017l0.415462 0.074701c21.022803 0.11461 40.172955 8.884344 54.016241 22.933315 13.93743 14.142092 22.624277 33.614585 22.624277 55.045687 0 48.678676-0.655939 97.606015-0.943488 146.343019l137.663336 134.633327 3.088338 3.149736c18.544355 19.715017 27.956725 44.665269 27.978215 69.600171 0.031722 25.012673-9.372461 49.9179-28.401864 69.37709l-8.460696 8.095375L918.108275 582.139453 918.108275 582.140477zM804.642037 544.371268l105.779162 0c9.94756-11.586896 14.880919-25.667589 14.856359-39.703257-0.013303-15.407921-5.975085-30.991852-17.721617-43.479257-48.849568-49.915853-101.016695-98.918917-151.099347-147.867746l0.959861-162.046676-0.077771-0.333598c0-11.027148-4.471848-21.060665-11.640108-28.332279-7.242961-7.352455-17.198707-11.94403-28.061103-12.026918l-0.325411 0.074701c-11.05887 0-21.092387 4.586458-28.343535 11.952216-7.213285 7.334036-11.701506 17.494443-11.701506 28.665877l0 84.587514L561.495274 122.620735c-13.279445-12.977569-31.370475-19.47454-49.53723-19.451004-18.153452 0.023536-36.257785 6.563486-49.592488 19.602454L116.699885 460.953394c-11.859096 12.57848-17.910928 28.220738-17.96414 43.661406-0.045025 14.06739 4.820796 28.146037 14.72333 39.756469l124.426871 0 0 320.302003c0 15.432481 6.209422 29.459962 16.180518 39.60502 10.008958 10.174734 23.848151 16.497743 39.076994 16.497743l88.494497 0L381.637953 769.907954c0-36.447097 14.691607-69.608358 38.349423-93.654007 23.629163-24.02109 56.210209-38.933731 92.01467-38.933731 35.812647 0 68.40188 14.912641 92.022857 38.925544 23.658839 24.044626 38.349423 57.20691 38.349423 93.66117l0 150.868079 88.502683 0c15.22168 0 29.065989-6.331195 39.074947-16.505929 9.980305-10.136871 16.180518-24.165376 16.180518-39.596833L786.132474 544.371268 804.642037 544.371268z" p-id="1410"></path></svg>