<?xml version="1.0" standalone="no"?><!DOCTYPE svg PUBLIC "-//W3C//DTD SVG 1.1//EN" "http://www.w3.org/Graphics/SVG/1.1/DTD/svg11.dtd"><svg t="1597840347844" class="icon" viewBox="0 0 1024 1024" version="1.1" xmlns="http://www.w3.org/2000/svg" p-id="2414" xmlns:xlink="http://www.w3.org/1999/xlink" width="200" height="200"><defs><style type="text/css"></style></defs><path d="M411.7 403.9a172.1 171.4 0 1 0 344.2 0 172.1 171.4 0 1 0-344.2 0Z" fill="#80F688" p-id="2415"></path><path d="M863.6 409.5c-19.1-45.1-46.4-85.7-81.2-120.5s-75.3-62.1-120.5-81.2C615.2 188 565.6 178 514.4 178s-100.8 10-147.5 29.8c-45.1 19.1-85.7 46.4-120.5 81.2s-62.1 75.3-81.2 120.5c-19.8 46.7-29.8 96.4-29.8 147.5s10 100.8 29.8 147.5c19.1 45.1 46.4 85.7 81.2 120.5s75.3 62.1 120.5 81.2C413.6 926 463.2 936 514.4 936s100.8-10 147.5-29.8c45.1-19.1 85.7-46.4 120.5-81.2s62.1-75.3 81.2-120.5c19.8-46.7 29.8-96.4 29.8-147.5s-10-100.8-29.8-147.5z m-106.7 390C692.1 864.3 606 900 514.4 900h-0.8c-1.9-10.4-2.9-21-2.9-31.8 0-94.3 76-170.9 169.8-170.9 40.9 0 91 17.7 120.5 42.1 0.9 0.7 1.9 1.4 2.8 1.9-13.3 20.8-29 40.4-46.9 58.2z m65.7-91.6C786.2 678.8 729 659 680.4 659c-114.7 0-207.7 93.6-207.7 209.2 0 10 0.7 19.8 2.1 29.6-76.6-8.8-147.6-42.8-202.9-98.2-64.8-64.8-100.5-151-100.5-242.6s35.7-177.8 100.5-242.5S422.8 214 514.4 214s177.8 35.7 242.5 100.5S857.4 465.4 857.4 557c0 53.2-12 104.5-34.8 150.9z" fill="#00D8FF" p-id="2416"></path><path d="M545.2 283.6c-5.9-16.9-9.1-35-9.1-53.9 0-90 72.7-163 162.4-163s162.4 73 162.4 163c0 29.2-7.6 56.6-21 80.2-3.1 8.7-6.4 17.1-9.8 25.1-8.1 19.3-41.4 82.9-99.9 190.6-9.5 17.6-31.5 24.1-49.1 14.6-6.1-3.3-11.2-8.3-14.5-14.4C606 415.1 570.5 347.7 560 323.5c-6.8-15.4-11.7-28.7-14.8-39.9z" fill="#00A5FF" p-id="2417"></path><path d="M615.2 238.7a81.3 81.6 0 1 0 162.6 0 81.3 81.6 0 1 0-162.6 0Z" fill="#FEFFFF" p-id="2418"></path><path d="M113.5 517.6a110.8 110.4 0 1 0 221.6 0 110.8 110.4 0 1 0-221.6 0Z" fill="#F1F2F2" p-id="2419"></path></svg>