<?xml version="1.0" standalone="no"?><!DOCTYPE svg PUBLIC "-//W3C//DTD SVG 1.1//EN" "http://www.w3.org/Graphics/SVG/1.1/DTD/svg11.dtd"><svg t="1597840322916" class="icon" viewBox="0 0 1024 1024" version="1.1" xmlns="http://www.w3.org/2000/svg" p-id="2276" xmlns:xlink="http://www.w3.org/1999/xlink" width="200" height="200"><defs><style type="text/css"></style></defs><path d="M461.824 679.1936h148.9408l-74.496 74.4448-74.4448-74.4448z m74.4448-355.0976a168.2176 168.2176 0 1 0 0 336.4352 168.2176 168.2176 0 0 0 0-336.4352z m0 299.0336a130.7904 130.7904 0 0 1-130.816-130.816 130.7904 130.7904 0 0 1 130.816-130.816 130.816 130.816 0 0 1 0 261.632z m0-205.6192a74.752 74.752 0 1 1-0.0512 149.5552 74.752 74.752 0 0 1 0.0512-149.5552zM691.456 217.1648a61.3376 61.3376 0 0 1-61.056-57.088 61.3376 61.3376 0 0 1 56.96-65.28 61.184 61.184 0 0 1 65.28 56.9856 60.928 60.928 0 0 1-14.9504 44.416 60.8 60.8 0 0 1-46.2336 20.9664z m0.0768-96.896l-2.4576 0.0768a35.6608 35.6608 0 0 0-33.1264 37.9648c1.3312 19.6352 18.5856 34.0992 37.9648 33.152 9.5232-0.6144 18.2016-4.9408 24.448-12.1344a35.6352 35.6352 0 0 0-26.8288-59.0592zM770.1504 898.0992a61.3376 61.3376 0 0 1-61.1072-57.088 60.8768 60.8768 0 0 1 14.9504-44.416 60.8 60.8 0 0 1 42.0352-20.8128c33.152-2.5856 62.9504 23.2192 65.2544 56.96a61.3632 61.3632 0 0 1-56.96 65.28 114.4832 114.4832 0 0 1-4.1728 0.0768z m0.0512-96.896c-0.8192 0-1.6128 0.0512-2.4576 0.1024a35.2 35.2 0 0 0-24.448 12.1344c-6.272 7.168-9.344 16.3584-8.704 25.856v0.0256c1.3312 19.6096 18.5856 34.176 37.9904 33.1264a35.6864 35.6864 0 0 0-2.3808-71.2448zM141.9776 632.0128a61.3632 61.3632 0 0 1-61.1072-57.088 60.8512 60.8512 0 0 1 14.9504-44.416 60.928 60.928 0 0 1 42.0096-20.8384 61.5936 61.5936 0 0 1 65.28 56.9856 60.8512 60.8512 0 0 1-14.9504 44.416 60.928 60.928 0 0 1-46.1824 20.9408z m0-96.896a35.328 35.328 0 0 0-26.8544 12.2112c-6.272 7.168-9.344 16.3584-8.704 25.856v0.0256a35.456 35.456 0 0 0 37.9904 33.152c9.472-0.64 18.176-4.9408 24.4224-12.1344a35.712 35.712 0 0 0-26.8544-59.1104z" fill="#333333" p-id="2277"></path><path d="M863.1296 755.5328a12.7744 12.7744 0 0 1-10.5984-19.968 379.392 379.392 0 0 0 65.152-213.248 382.8992 382.8992 0 0 0-190.6944-330.3936 12.8 12.8 0 0 1 12.8-22.1696 408.576 408.576 0 0 1 203.4944 352.5376c0 81.5872-24.0384 160.2816-69.5552 227.6096a12.8 12.8 0 0 1-10.5984 5.632zM141.9776 535.1168a12.8 12.8 0 0 1-12.8-12.8c0-224.4608 182.6048-407.04 407.04-407.04 10.3168 0 20.5312 0.384 30.6688 1.1264a12.8512 12.8512 0 0 1 11.8272 13.7216 12.8512 12.8512 0 0 1-13.7216 11.8272 396.416 396.416 0 0 0-28.7744-1.0752c-210.3296 0-381.44 171.136-381.44 381.44a12.8 12.8 0 0 1-12.8 12.8zM536.2176 929.3312c-155.392 0-299.4176-90.5216-366.9248-230.6048a12.7744 12.7744 0 1 1 23.04-11.1104c63.2576 131.2768 198.2464 216.0896 343.8848 216.0896 67.072 0 133.0176-17.6384 190.7456-51.0208a12.7744 12.7744 0 1 1 12.8 22.1696 406.6048 406.6048 0 0 1-203.5456 54.4768z" fill="#333333" p-id="2278"></path></svg>