<?xml version="1.0" standalone="no"?><!DOCTYPE svg PUBLIC "-//W3C//DTD SVG 1.1//EN" "http://www.w3.org/Graphics/SVG/1.1/DTD/svg11.dtd"><svg t="1597829051943" class="icon" viewBox="0 0 1025 1024" version="1.1" xmlns="http://www.w3.org/2000/svg" p-id="1153" xmlns:xlink="http://www.w3.org/1999/xlink" width="200.1953125" height="200"><defs><style type="text/css"></style></defs><path d="M824.247 555.763c-71.381-58.444-142.425-117.225-213.637-175.894-32.737-26.944-65.475-53.887-98.269-80.944-2.869 2.081-5.287 3.769-7.594 5.625-102.431 84.487-204.975 168.919-307.181 253.688-3.769 3.15-6.412 9.956-6.469 15.075-0.394 85.556-0.338 171.169-0.225 256.725 0 26.55 14.006 40.275 40.837 40.275 65.869 0.056 131.681 0 197.55 0 3.544 0 7.088-0.394 11.587-0.675 0-71.494 0-142.031 0-213.075 47.756 0 94.5 0 142.256 0 0 70.819 0 141.412 0 213.806 5.4 0 9 0 12.656 0 65.138 0 130.219 0 195.356 0 28.8 0 42.131-13.387 42.131-42.469 0.056-84.094-0.113-168.188 0.169-252.225 0.056-8.663-2.475-14.344-9.169-19.912z" fill="#09bb07" p-id="1154"></path><path d="M949.459 497.769c-33.469-27.844-66.6-56.081-100.688-83.138-11.588-9.169-16.031-18.563-15.863-33.581 0.9-67.331 0.45-134.719 0.394-202.050 0-16.369-5.175-23.006-18.9-23.119-34.988-0.281-69.975-0.281-104.962 0-12.319 0.113-18.281 6.188-18.731 18.731-0.45 11.137-0.169 22.331-0.169 33.469 0 23.737 0 47.475 0 73.856-5.625-4.5-8.775-6.975-11.869-9.563-38.813-32.456-77.625-64.912-116.494-97.369-34.144-28.406-66.037-28.463-100.238 0-71.212 59.231-142.369 118.575-213.581 177.863-57.712 48.094-115.425 96.244-173.194 144.338-16.706 13.95-17.269 20.981-3.038 37.856 8.156 9.675 16.2 19.406 24.356 29.081 12.206 14.456 20.25 15.188 34.762 3.038 95.681-79.819 191.363-159.75 287.1-239.569 31.050-25.931 62.213-51.862 93.656-78.075 31.387 26.156 62.269 51.862 93.094 77.569 95.962 80.1 191.981 160.2 287.944 240.3 14.344 11.981 22.331 11.137 34.65-3.488 8.381-9.956 16.706-19.969 25.088-29.925 13.106-15.581 12.431-23.119-3.319-36.225z" fill="#09bb07" p-id="1155"></path></svg>